<?xml version="1.0" encoding="UTF-8"?>
<svg version="1.1" xmlns="http://www.w3.org/2000/svg" width="200" height="200">
<path d="M0 0 C14.52 0 29.04 0 44 0 C44.72437834 3.62189172 45.11585593 6.23765264 45.0625 9.8125 C45.05347656 10.60269531 45.04445312 11.39289062 45.03515625 12.20703125 C45.01775391 13.09455078 45.01775391 13.09455078 45 14 C51.97761838 14.86147274 51.97761838 14.86147274 59 15 C60.0723969 18.68636433 60.04183175 21.97314114 59.9375 25.78125 C59.90982267 28.01048397 59.90982267 28.01048397 60.59765625 30.1171875 C61 32 61 32 59.4375 34.625 C57.38360345 39.4471919 58.64828111 43.07935424 60 48 C56.22777911 49.75163456 53.333361 50.22490027 49.1875 50.125 C48.21167969 50.10695312 47.23585937 50.08890625 46.23046875 50.0703125 C45.12638672 50.03550781 45.12638672 50.03550781 44 50 C44.185625 50.86625 44.37125 51.7325 44.5625 52.625 C45 56 45 56 44 62 C48.95 62 53.9 62 59 62 C60.83246906 65.66493813 61.24888181 66.69456444 61.22705078 70.49316406 C61.22682419 71.81408051 61.22682419 71.81408051 61.22659302 73.16168213 C61.21627045 74.10348328 61.20594788 75.04528442 61.1953125 76.015625 C61.1924826 76.98659119 61.18965271 77.95755737 61.18673706 78.95794678 C61.17555292 82.05542385 61.15045142 85.1526105 61.125 88.25 C61.11496792 90.35155832 61.10584247 92.45312118 61.09765625 94.5546875 C61.07561934 99.70323669 61.04110145 104.85156913 61 110 C62.27875 109.979375 63.5575 109.95875 64.875 109.9375 C68.75 109.875 68.75 109.875 71 111 C71.66 110.814375 72.32 110.62875 73 110.4375 C73.99 110.2209375 73.99 110.2209375 75 110 C77 112 77 112 77.125 114.4609375 C77.04188967 116.39844708 76.95855754 118.33594716 76.875 120.2734375 C77.0040094 123.087455 77.55467457 124.61747136 79 127 C79.33 126.67 79.66 126.34 80 126 C86.51460066 125.55433315 93.11395488 126.05977334 99.625 126.4375 C100.6914978 126.49623291 100.6914978 126.49623291 101.77954102 126.55615234 C106.87959133 126.87959133 106.87959133 126.87959133 108 128 C108.04080783 129.99958364 108.04254356 132.00045254 108 134 C104 134 104 134 101 133 C100.01 133.33 99.02 133.66 98 134 C99.32 134.66 100.64 135.32 102 136 C102 137.98 102 139.96 102 142 C106.29 142 110.58 142 115 142 C115.02486852 147.67423184 115.04293935 153.34843138 115.05493164 159.02270508 C115.05993539 160.94979404 115.06674045 162.87687925 115.07543945 164.80395508 C115.08767948 167.58676076 115.09326804 170.36951589 115.09765625 173.15234375 C115.10281754 174.00271713 115.10797882 174.85309052 115.11329651 175.72923279 C115.11380299 181.22895519 114.69381392 186.5431175 114 192 C110.33675733 193.67575192 107.4912835 194.24801434 103.47265625 194.23046875 C102.43302734 194.22853516 101.39339844 194.22660156 100.32226562 194.22460938 C99.24654297 194.21236328 98.17082031 194.20011719 97.0625 194.1875 C95.99064453 194.18685547 94.91878906 194.18621094 93.81445312 194.18554688 C88.7493146 194.1573201 83.98992081 193.9405921 79 193 C76.99124558 193.27571139 74.98821313 193.60235737 73 194 C70.06406867 194 67.23443584 193.77500573 64.3125 193.5 C63.31863281 193.4071875 62.32476562 193.314375 61.30078125 193.21875 C60.54152344 193.1465625 59.78226563 193.074375 59 193 C57.40289626 188.80760268 56.80099172 185.47768632 57 181 C57 180.01 57 179.02 57 178 C55.741875 177.814375 54.48375 177.62875 53.1875 177.4375 C52.47980469 177.33308594 51.77210938 177.22867188 51.04296875 177.12109375 C48.7974658 176.86095201 48.7974658 176.86095201 46 178 C43.36457347 178.09683023 40.75639554 178.13998417 38.12109375 178.1328125 C37.35322037 178.13376923 36.58534698 178.13472595 35.79420471 178.13571167 C34.17277952 178.13639159 32.55135159 178.13455043 30.92993164 178.13037109 C28.44346027 178.12501284 25.95716893 178.13032617 23.47070312 178.13671875 C21.89583293 178.13605808 20.32096285 178.13477714 18.74609375 178.1328125 C18.00024521 178.13483673 17.25439667 178.13686096 16.48594666 178.13894653 C11.22993247 178.11496623 11.22993247 178.11496623 9 177 C7 177.33333333 5 177.66666667 3 178 C0.32620243 178.08656179 -2.3236713 178.0461436 -5 178 C-7.37590142 174.29583874 -7.20500286 171.07015427 -7.125 166.75 C-7.10695313 165.48671875 -7.08890625 164.2234375 -7.0703125 162.921875 C-7.04710938 161.95765625 -7.02390625 160.9934375 -7 160 C-7.99 160.66 -8.98 161.32 -10 162 C-12.26171875 161.9765625 -12.26171875 161.9765625 -14.6875 161.625 C-15.49574219 161.51414063 -16.30398437 161.40328125 -17.13671875 161.2890625 C-17.75160156 161.19367188 -18.36648437 161.09828125 -19 161 C-19.91232688 165.57245958 -19.91232688 165.57245958 -19.4375 170.125 C-18.78497448 172.92153794 -19.66450841 174.52934056 -21 177 C-24 178 -24 178 -25.875 177.5 C-28.50883299 176.88027459 -30.3792286 177.44825865 -33 178 C-33.66 177.67 -34.32 177.34 -35 177 C-35.09087891 177.95712891 -35.09087891 177.95712891 -35.18359375 178.93359375 C-35.26738281 179.75988281 -35.35117187 180.58617187 -35.4375 181.4375 C-35.51871094 182.26121094 -35.59992187 183.08492187 -35.68359375 183.93359375 C-36 186 -36 186 -37 187 C-38.66617115 187.04063832 -40.33388095 187.042721 -42 187 C-41.979375 187.804375 -41.95875 188.60875 -41.9375 189.4375 C-42 192 -42 192 -43 193 C-51.04471749 194.15474414 -58.84256274 193.9700166 -66.90625 193.15625 C-69.85537299 193.00730439 -72.13814849 193.3738171 -75 194 C-77.00109278 193.67329097 -79.00116131 193.34022786 -81 193 C-82.32 193.33 -83.64 193.66 -85 194 C-85 171.89 -85 149.78 -85 127 C-78.41315437 126.34131544 -72.1377827 125.84159467 -65.5625 125.875 C-64.38010742 125.86919922 -64.38010742 125.86919922 -63.17382812 125.86328125 C-59.86296778 125.86891676 -57.16202645 125.94599118 -54 127 C-53.97111486 123.85418577 -53.95324077 120.70840531 -53.9375 117.5625 C-53.92912109 116.66466797 -53.92074219 115.76683594 -53.91210938 114.84179688 C-53.90888672 113.98779297 -53.90566406 113.13378906 -53.90234375 112.25390625 C-53.89710693 111.46314697 -53.89187012 110.6723877 -53.88647461 109.85766602 C-53.79504091 107.98407311 -53.79504091 107.98407311 -55 107 C-55.07226502 105.14712498 -55.0838122 103.29166122 -55.0625 101.4375 C-55.05347656 100.42558594 -55.04445313 99.41367188 -55.03515625 98.37109375 C-55.02355469 97.58863281 -55.01195313 96.80617188 -55 96 C-51.5233662 93.85663839 -48.78770805 93.78722374 -44.75 93.875 C-43.67234375 93.89304687 -42.5946875 93.91109375 -41.484375 93.9296875 C-40.66453125 93.95289062 -39.8446875 93.97609375 -39 94 C-39.02320313 93.01257813 -39.04640625 92.02515625 -39.0703125 91.0078125 C-39.08835938 89.72648437 -39.10640625 88.44515625 -39.125 87.125 C-39.14820313 85.84882812 -39.17140625 84.57265625 -39.1953125 83.2578125 C-39 80 -39 80 -37 78 C-34.625 77.875 -34.625 77.875 -32 78 C-30.68 78 -29.36 78 -28 78 C-26 78 -24 78 -22 78 C-21.67 76.35 -21.34 74.7 -21 73 C-18.50638429 74.20381448 -16.31856917 75.45428722 -14 77 C-13.34 75.02 -12.68 73.04 -12 71 C-10.35 71 -8.7 71 -7 71 C-8.65 69.35 -10.3 67.7 -12 66 C-11.505 64.515 -11.505 64.515 -11 63 C-9.35 62.67 -7.7 62.34 -6 62 C-6.33 61.01 -6.66 60.02 -7 59 C-7.09635462 56.50894976 -7.1393246 54.05259297 -7.125 51.5625 C-7.12886719 49.58443359 -7.12886719 49.58443359 -7.1328125 47.56640625 C-7 44 -7 44 -6.46484375 41.9375 C-5.77044038 39.04318008 -6.17019506 36.39105463 -6.4375 33.4375 C-7.18103322 24.12885035 -7.21456068 15.26102522 -6 6 C-4 6 -2 6 0 6 C0.66 5.34 1.32 4.68 2 4 C1.01 2.02 1.01 2.02 0 0 Z M49 18 C49.66 19.32 50.32 20.64 51 22 C51.66 20.68 52.32 19.36 53 18 C51.68 18 50.36 18 49 18 Z M-82 182 C-81.67 182.66 -81.34 183.32 -81 184 C-80.34 183.67 -79.68 183.34 -79 183 C-79.99 182.67 -80.98 182.34 -82 182 Z M-81 188 C-80.67 188.99 -80.34 189.98 -80 191 C-80 190.01 -80 189.02 -80 188 C-80.33 188 -80.66 188 -81 188 Z " fill="#F9FDFB" transform="translate(85,0)"/>
<path d="M0 0 C6.14099563 3.54288209 10.74133184 7.05409456 13.25 13.875 C13.73385278 19.19404699 13.63866643 24.53431203 13.6015625 29.87109375 C13.76871872 41.83669323 17.73771702 52.29698511 26.25 60.875 C33.2228121 66.65247288 39.21272014 69.42429837 48.125 70.75 C56.3494882 72.08342569 61.8882091 74.49935086 67.0625 81.1640625 C70.70888686 86.4177383 70.98428104 91.62896381 70.25 97.875 C68.4586116 104.56857104 65.08226355 109.16139545 59.25 112.875 C53.22945619 116.11872157 46.78016458 117.21384046 40.1484375 115.25390625 C33.7909288 112.49244012 28.95844635 107.55259716 26.046875 101.28515625 C24.93686917 96.53498425 25.21378812 92.03940473 25.375 87.1875 C25.58206813 73.59447905 22.6654061 64.63199871 13.21484375 54.74609375 C5.94806166 47.78690032 -1.10876056 45.32400417 -10.875 43.5 C-18.79506275 41.90737869 -23.2580599 39.069795 -28.1875 32.75 C-31.42762577 26.78816858 -31.54319694 20.30897089 -30.359375 13.69140625 C-28.58785103 7.86581781 -24.71495765 4.23953174 -19.75 0.875 C-13.39153927 -2.21193013 -6.6810964 -2.00432892 0 0 Z " fill="#75BC75" transform="translate(129.75,72.125)"/>
<path d="M0 0 C3.77928665 2.10551807 6.33691213 4.06003589 8.625 7.8125 C9.2025 8.6375 9.78 9.4625 10.375 10.3125 C12.64682924 16.67362186 12.95808146 23.38130409 10.48828125 29.73828125 C6.21944785 37.30117506 1.07943906 40.5734756 -7.1875 43.125 C-18.84295845 47.15344085 -26.11172065 54.25223027 -31.6875 65.125 C-34.33754801 70.63754713 -34.55797603 75.16156603 -34.5625 81.1875 C-34.58086914 82.46367187 -34.58086914 82.46367187 -34.59960938 83.765625 C-34.61024603 88.31811486 -34.30294566 91.62163742 -32.375 95.8125 C-31.41577741 102.64974936 -32.45184588 108.12456134 -36.375 113.8125 C-41.02264945 119.04110563 -44.86797226 122.45359427 -51.92578125 123.015625 C-59.43177887 123.14302524 -64.15247636 122.51042677 -70.0625 117.5625 C-75.05488469 111.6256101 -77.74587703 106.2444104 -77.65625 98.48046875 C-76.95881334 91.86450708 -73.34954205 87.05906029 -68.375 82.8125 C-64.86120474 80.48192151 -61.60458571 79.16017925 -57.5625 78 C-51.86624614 76.15011364 -47.75316973 73.87794332 -43.375 69.8125 C-42.45074219 68.96751953 -42.45074219 68.96751953 -41.5078125 68.10546875 C-34.0710397 60.52506729 -30.25445723 49.4631762 -30.1875 38.9375 C-30.17332031 37.92945313 -30.15914062 36.92140625 -30.14453125 35.8828125 C-30.25186787 32.77786309 -30.25186787 32.77786309 -31.3671875 29.8359375 C-33.44023286 23.61680141 -33.28484021 16.4941343 -31.1875 10.3125 C-23.42083745 -0.400138 -12.54477552 -5.92856799 0 0 Z " fill="#76BC75" transform="translate(118.375,13.1875)"/>
<path d="M0 0 C5.59786251 3.3875477 9.46136951 8.24747652 11.5 14.4375 C12.40688267 21.4922036 11.86456704 27.6748126 7.5 33.4375 C2.97231265 38.22040146 -1.40169281 41.9106623 -8.11328125 42.7734375 C-16.51832924 42.89507351 -21.71332263 41.04922971 -27.9375 35.4375 C-36.25585154 27.95098361 -47.31741817 25.92386265 -58.19140625 26.125 C-67.53410943 27.00742769 -76.99361442 31.46029802 -83.33203125 38.4609375 C-84.18861328 39.50121094 -84.18861328 39.50121094 -85.0625 40.5625 C-89.28869566 45.58772582 -93.02783439 48.01979587 -99.6171875 48.8125 C-106.31401041 49.05995766 -112.16272129 48.78999608 -117.5 44.4375 C-122.39482239 39.29081874 -125.1519607 34.19632449 -125.8125 27.0625 C-125.14457713 19.31459467 -122.11531007 13.78338863 -116.5 8.4375 C-110.91484994 4.4481071 -105.23596675 3.66983766 -98.5 4.4375 C-92.75225753 6.11672359 -88.61357234 8.99009897 -84.24609375 12.984375 C-75.8038522 20.01013307 -65.11112006 21.36955784 -54.5 20.4375 C-44.01673281 18.50250442 -34.42019681 13.72015436 -27.75 5.1875 C-21.02645528 -3.03016577 -9.62668113 -4.28470779 0 0 Z " fill="#75BB74" transform="translate(125.5,130.5625)"/>
<path d="M0 0 C3.77928665 2.10551807 6.33691213 4.06003589 8.625 7.8125 C9.2025 8.6375 9.78 9.4625 10.375 10.3125 C12.64682924 16.67362186 12.95808146 23.38130409 10.48828125 29.73828125 C5.42063991 38.71638599 -1.42220114 41.38045125 -10.9375 44.46875 C-14.48287759 45.85467033 -17.23873451 47.68037029 -20.375 49.8125 C-22.3674325 50.18843066 -24.3668674 50.53229545 -26.375 50.8125 C-26.705 51.4725 -27.035 52.1325 -27.375 52.8125 C-28.035 52.4825 -28.695 52.1525 -29.375 51.8125 C-29.42398438 50.51054688 -29.47296875 49.20859375 -29.5234375 47.8671875 C-29.59850629 46.14060529 -29.67405233 44.41404378 -29.75 42.6875 C-29.79640625 41.40359375 -29.79640625 41.40359375 -29.84375 40.09375 C-30.06642855 35.26904808 -30.76394123 31.39535243 -32.375 26.8125 C-33.00003274 20.12383792 -33.46596383 13.45520873 -29.375 7.8125 C-21.27357953 -1.38370701 -11.49097018 -5.43054739 0 0 Z " fill="#2B9A75" transform="translate(118.375,13.1875)"/>
<path d="M0 0 C6.11478719 3.52776184 10.80772471 7.05423117 13.25 13.875 C13.56392633 18.31951605 13.43953729 22.73640085 13.3125 27.1875 C13.1097827 35.11935331 13.13412573 42.19363544 15.25 49.875 C13.421875 50.48828125 13.421875 50.48828125 11.25 50.875 C8.5 49.0625 8.5 49.0625 6.25 46.875 C6.25 46.215 6.25 45.555 6.25 44.875 C4.87714844 44.67583984 4.87714844 44.67583984 3.4765625 44.47265625 C2.28804687 44.29605469 1.09953125 44.11945313 -0.125 43.9375 C-1.30835938 43.76347656 -2.49171875 43.58945313 -3.7109375 43.41015625 C-6.75 42.875 -6.75 42.875 -8.75 41.875 C-10.47856388 41.79760162 -12.20792959 41.7375979 -13.9375 41.6875 C-19.05843635 41.26467039 -21.7673214 40.1076786 -25.3828125 36.4921875 C-30.75362304 30.13928589 -31.38316835 23.94789648 -30.75 15.875 C-29.6430982 9.68741892 -26.60859251 6.30479369 -21.8828125 2.3203125 C-15.16000922 -2.23543331 -7.61932938 -2.28579881 0 0 Z " fill="#2A9975" transform="translate(129.75,72.125)"/>
<path d="M0 0 C5.59786251 3.3875477 9.46136951 8.24747652 11.5 14.4375 C12.40688267 21.4922036 11.86456704 27.6748126 7.5 33.4375 C2.97231265 38.22040146 -1.40169281 41.9106623 -8.11328125 42.7734375 C-17.53931433 42.90984898 -23.05710981 40.17768353 -29.859375 33.8046875 C-31.48625466 32.34019541 -31.48625466 32.34019541 -33.640625 31.3828125 C-35.5 30.4375 -35.5 30.4375 -36.5 28.4375 C-37.49 27.7775 -38.48 27.1175 -39.5 26.4375 C-38.7662743 24.70323926 -38.03056317 22.96977064 -37.28125 21.2421875 C-36.71653198 19.93768888 -36.16623061 18.62691718 -35.625 17.3125 C-34.00530485 14.61300808 -31.71850507 12.65600507 -29.5 10.4375 C-29.17 9.4475 -28.84 8.4575 -28.5 7.4375 C-27.84 7.1075 -27.18 6.7775 -26.5 6.4375 C-26.438125 5.839375 -26.37625 5.24125 -26.3125 4.625 C-25.24536185 1.75193575 -23.6000208 0.59753149 -20.921875 -0.796875 C-14.38517904 -2.86331437 -6.30812612 -2.80766307 0 0 Z " fill="#2A9A75" transform="translate(125.5,130.5625)"/>
<path d="M0 0 C0.33 0 0.66 0 1 0 C1.01417969 0.87140625 1.02835938 1.7428125 1.04296875 2.640625 C1.52985647 14.7996588 4.51234258 23.90728546 12.64453125 33.0625 C14 35 14 35 14 39 C12.02 39.495 12.02 39.495 10 40 C9.59910156 39.443125 9.19820312 38.88625 8.78515625 38.3125 C-2.03237427 23.79100778 -12.50442009 19.32768955 -30 16 C-30 15.67 -30 15.34 -30 15 C-24.13882859 14.58868973 -18.93981089 15.25965459 -13.25 16.6875 C-11.99703125 17.00074219 -10.7440625 17.31398438 -9.453125 17.63671875 C-5.62040257 19.14986369 -3.80155374 21.0466138 -1 24 C-0.01 24 0.98 24 2 24 C1.67 22.824375 1.34 21.64875 1 20.4375 C-0.53227012 13.70414398 -0.16270741 6.86082894 0 0 Z " fill="#6AB080" transform="translate(142,98)"/>
<path d="M0 0 C0.33 0.99 0.66 1.98 1 3 C0.01 3.33 -0.98 3.66 -2 4 C-2.12375 4.5775 -2.2475 5.155 -2.375 5.75 C-3.28639866 9.03103519 -5.62801206 10.62801206 -8 13 C-8 13.99 -8 14.98 -8 16 C-8.66 16 -9.32 16 -10 16 C-10.144375 16.969375 -10.28875 17.93875 -10.4375 18.9375 C-11 22 -11 22 -12 23 C-11.01 23.99 -10.02 24.98 -9 26 C-17.91 24.02 -17.91 24.02 -27 22 C-26.34 21.67 -25.68 21.34 -25 21 C-23.86649466 18.98330173 -23.86649466 18.98330173 -23 17 C-22.34 17 -21.68 17 -21 17 C-21 16.34 -21 15.68 -21 15 C-20.1646875 14.67128906 -20.1646875 14.67128906 -19.3125 14.3359375 C-11.48330422 11.08258925 -4.96043901 7.02728859 0 0 Z " fill="#4BA96D" transform="translate(99,134)"/>
<path d="M0 0 C0.33 0 0.66 0 1 0 C1 2.31 1 4.62 1 7 C1.763125 6.649375 2.52625 6.29875 3.3125 5.9375 C6 5 6 5 9 6 C8.55269531 6.47308594 8.10539062 6.94617188 7.64453125 7.43359375 C3.22545994 12.26724744 -0.06279847 17.15266793 -3 23 C-3.66 23 -4.32 23 -5 23 C-5.33 23.66 -5.66 24.32 -6 25 C-6.66 24.67 -7.32 24.34 -8 24 C-8.33 25.32 -8.66 26.64 -9 28 C-9.66 28 -10.32 28 -11 28 C-10.06153245 23.90486887 -9.01870011 20.83665862 -6.625 17.375 C-3.10053673 12.08307592 -1.65863156 6.07856034 0 0 Z " fill="#68B176" transform="translate(88,58)"/>
<path d="M0 0 C-5.33802717 5.63458423 -10.50978011 6.05570055 -18 7 C-20.08571411 7.36152378 -22.16929029 7.73570593 -24.25 8.125 C-25.16265625 8.29257813 -26.0753125 8.46015625 -27.015625 8.6328125 C-27.67046875 8.75398437 -28.3253125 8.87515625 -29 9 C-27.92578125 7.2421875 -26.8515625 5.484375 -25.77734375 3.7265625 C-25.52082031 3.15679687 -25.26429687 2.58703125 -25 2 C-25.33 1.34 -25.66 0.68 -26 0 C-25.44014404 0.00523682 -24.88028809 0.01047363 -24.3034668 0.01586914 C-21.76482263 0.03666691 -19.22619641 0.04966904 -16.6875 0.0625 C-15.80642578 0.07087891 -14.92535156 0.07925781 -14.01757812 0.08789062 C-13.17001953 0.09111328 -12.32246094 0.09433594 -11.44921875 0.09765625 C-10.66893311 0.10289307 -9.88864746 0.10812988 -9.0847168 0.11352539 C-1.04493225 -0.32428932 -1.04493225 -0.32428932 0 0 Z " fill="#66B271" transform="translate(78,151)"/>
<path d="M0 0 C0.99 0.33 1.98 0.66 3 1 C2.67 1.99 2.34 2.98 2 4 C1.21625 4.061875 0.4325 4.12375 -0.375 4.1875 C-1.24125 4.455625 -2.1075 4.72375 -3 5 C-4.27587495 7.3140387 -4.27587495 7.3140387 -5 10 C-6.71428571 13.85714286 -6.71428571 13.85714286 -9 15 C-9.68472665 16.88764903 -9.68472665 16.88764903 -10.125 19.0625 C-10.29257813 19.79597656 -10.46015625 20.52945313 -10.6328125 21.28515625 C-10.75398437 21.85105469 -10.87515625 22.41695312 -11 23 C-10.34 23.33 -9.68 23.66 -9 24 C-8.33333333 25.33333333 -7.66666667 26.66666667 -7 28 C-7.33 28.99 -7.66 29.98 -8 31 C-7.38125 31.309375 -6.7625 31.61875 -6.125 31.9375 C-4.75 32.625 -3.375 33.3125 -2 34 C-2 35.65 -2 37.3 -2 39 C-7.68193002 35.21204665 -9.90101751 30.29694748 -12 24 C-12.58933731 16.4859493 -10.79375421 10.87273515 -6 5.125 C-4.05727107 2.94954833 -2.47941489 1.65294326 0 0 Z " fill="#8DC089" transform="translate(12,137)"/>
<path d="M0 0 C3.12290635 0.48578543 5.99580359 0.9986012 9 2 C10.33106622 2.34227417 11.66400079 2.67751743 13 3 C13 3.99 13 4.98 13 6 C13.94241646 7.81248049 13.94241646 7.81248049 16 9 C18.72826534 9.35259361 21.26573454 9.55688663 24 9.625 C31.69671315 9.89890438 31.69671315 9.89890438 35 11 C29.1330292 13.64277964 22.97591669 14.21697624 16.75390625 12.3125 C12.48279106 10.31431746 9.02632216 7.54310012 5.54296875 4.39453125 C3.78217932 2.80313422 1.92532134 1.38623137 0 0 Z " fill="#4FA080" transform="translate(90,160)"/>
<path d="M0 0 C0.66 0 1.32 0 2 0 C2 0.66 2 1.32 2 2 C2.66 2 3.32 2 4 2 C4.66 4.31 5.32 6.62 6 9 C6.7425 8.95875 7.485 8.9175 8.25 8.875 C11.11948044 9.00543093 12.60575147 9.46084023 15 11 C15.33 11.66 15.66 12.32 16 13 C23.25078183 13.36547738 23.25078183 13.36547738 30 11 C30.33 10.34 30.66 9.68 31 9 C32.65 9 34.3 9 36 9 C32.29824086 13.27126054 29.04488121 14.73782745 23.4140625 15.22265625 C15.91420699 15.45895307 11.0098088 14.66778507 5.25 9.5625 C0 3.58333333 0 3.58333333 0 0 Z " fill="#8FBE8C" transform="translate(43,121)"/>
<path d="M0 0 C3.3125 -0.3125 3.3125 -0.3125 7 0 C8.04892238 1.63631892 9.04906703 3.30485863 10 5 C14.85123266 6.61707755 20.03372124 5.94097913 25 5 C25.33 4.67 25.66 4.34 26 4 C27.66617115 3.95936168 29.33388095 3.957279 31 4 C25.99039292 8.2388983 20.7547394 9.47946221 14.30859375 9.31640625 C8.93597099 8.58005694 5.10372776 6.21410054 1.5 2.25 C1.005 1.5075 0.51 0.765 0 0 Z " fill="#92BF8D" transform="translate(160,179)"/>
<path d="M0 0 C0.99 0.66 1.98 1.32 3 2 C-1.20273458 5.01931617 -4.97193825 6.87590467 -9.9375 8.5 C-15.0355756 10.24251684 -19.4754028 12.09133037 -24 15 C-23.4375 12.625 -23.4375 12.625 -22 10 C-19.68529088 9.27129528 -17.3494053 8.60760482 -15 8 C-14.319375 7.278125 -13.63875 6.55625 -12.9375 5.8125 C-12.298125 5.214375 -11.65875 4.61625 -11 4 C-7.75 4.25 -7.75 4.25 -5 5 C-4.67 4.01 -4.34 3.02 -4 2 C-3.34 2.33 -2.68 2.66 -2 3 C-2 2.34 -2 1.68 -2 1 C-1.34 0.67 -0.68 0.34 0 0 Z " fill="#49A07C" transform="translate(121,48)"/>
<path d="M0 0 C6.42857143 4.14285714 6.42857143 4.14285714 9 7 C8.67 7.99 8.34 8.98 8 10 C5.9375 10.6875 5.9375 10.6875 4 11 C-0.61702128 4.44680851 -0.61702128 4.44680851 -1 1 C-0.67 0.67 -0.34 0.34 0 0 Z " fill="#66B271" transform="translate(148,127)"/>
<path d="M0 0 C5.86117141 -0.41131027 11.06018911 0.25965459 16.75 1.6875 C18.00296875 2.00074219 19.2559375 2.31398438 20.546875 2.63671875 C24.36816757 4.14535122 26.32756895 5.92466427 29 9 C28.67 9.66 28.34 10.32 28 11 C27.53851563 10.67386719 27.07703125 10.34773438 26.6015625 10.01171875 C18.42056357 4.53077283 9.5766801 2.73195278 0 1 C0 0.67 0 0.34 0 0 Z " fill="#5BA780" transform="translate(112,113)"/>
<path d="M0 0 C0.99 0.66 1.98 1.32 3 2 C1.865625 1.979375 0.73125 1.95875 -0.4375 1.9375 C-3.81575674 1.58422523 -3.81575674 1.58422523 -5 3 C-7.01964199 3.07244053 -9.04167124 3.08377188 -11.0625 3.0625 C-12.71958984 3.04896484 -12.71958984 3.04896484 -14.41015625 3.03515625 C-15.26480469 3.02355469 -16.11945313 3.01195312 -17 3 C-17 3.66 -17 4.32 -17 5 C-18.32 4.67 -19.64 4.34 -21 4 C-14.54537713 -0.9178079 -7.91773651 -0.85543384 0 0 Z " fill="#349377" transform="translate(121,129)"/>
<path d="M0 0 C1.4540625 0.0309375 1.4540625 0.0309375 2.9375 0.0625 C2.9375 4.0625 2.9375 4.0625 0.9375 6.3125 C-0.0525 7.17875 -0.0525 7.17875 -1.0625 8.0625 C-2.0525 7.7325 -3.0425 7.4025 -4.0625 7.0625 C-4.10504356 5.06295254 -4.10330783 3.06208364 -4.0625 1.0625 C-3.0625 0.0625 -3.0625 0.0625 0 0 Z " fill="#FEFFFF" transform="translate(67.0625,62.9375)"/>
<path d="M0 0 C1 2 1 2 0.3984375 4.0234375 C-1.70601087 8.85884941 -3.4093454 12.06708178 -8 15 C-8 14.01 -8 13.02 -8 12 C-7.34 11.67 -6.68 11.34 -6 11 C-5.71125 9.906875 -5.4225 8.81375 -5.125 7.6875 C-3.97542749 3.91945678 -2.96786781 2.47322318 0 0 Z " fill="#8EBD89" transform="translate(199,168)"/>
<path d="M0 0 C-0.33 0.33 -0.66 0.66 -1 1 C-0.01 1.99 0.98 2.98 2 4 C-6.91 2.02 -6.91 2.02 -16 0 C-16 -0.33 -16 -0.66 -16 -1 C-3.95070423 -2.63380282 -3.95070423 -2.63380282 0 0 Z " fill="#5BAD7C" transform="translate(88,156)"/>
<path d="M0 0 C0.66 0 1.32 0 2 0 C-0.04799158 4.60798106 -3.17990126 8.70082381 -7 12 C-7.66 12 -8.32 12 -9 12 C-7.60090738 7.54834166 -5.39864635 5.14374788 -2 2 C-1.34 1.34 -0.68 0.68 0 0 Z " fill="#3A987E" transform="translate(96,14)"/>
<path d="M0 0 C6.31390154 -0.54903492 11.39268586 1.05669718 17 4 C17.33 4.66 17.66 5.32 18 6 C15.69 5.67 13.38 5.34 11 5 C11 4.34 11 3.68 11 3 C10.28972656 2.95101562 9.57945312 2.90203125 8.84765625 2.8515625 C7.92855469 2.77679688 7.00945312 2.70203125 6.0625 2.625 C5.14597656 2.55539063 4.22945312 2.48578125 3.28515625 2.4140625 C2.15400391 2.20910156 2.15400391 2.20910156 1 2 C0.67 1.34 0.34 0.68 0 0 Z " fill="#87BA88" transform="translate(174,143)"/>
<path d="M0 0 C0.33 0.99 0.66 1.98 1 3 C0.01 3.33 -0.98 3.66 -2 4 C-2.36548445 5.32488113 -2.6937566 6.66018514 -3 8 C-4.5625 10.25 -4.5625 10.25 -6 12 C-7.32 11.34 -8.64 10.68 -10 10 C-9.0925 9.278125 -8.185 8.55625 -7.25 7.8125 C-4.4298006 5.47347206 -2.19093342 2.94933345 0 0 Z " fill="#56A47E" transform="translate(99,134)"/>
<path d="M0 0 C0.33 0 0.66 0 1 0 C1.12152487 7.73708326 0.84800767 15.307359 0 23 C-0.33 23 -0.66 23 -1 23 C-2.51708428 7.25512528 -2.51708428 7.25512528 0 0 Z " fill="#4A9D78" transform="translate(142,86)"/>
<path d="M0 0 C0.66 0.33 1.32 0.66 2 1 C2.05391993 2.79133978 2.09275571 4.58313899 2.125 6.375 C2.14820313 7.37273437 2.17140625 8.37046875 2.1953125 9.3984375 C2 12 2 12 0 14 C-0.66 13.67 -1.32 13.34 -2 13 C-1.34 8.71 -0.68 4.42 0 0 Z " fill="#389581" transform="translate(135,144)"/>
<path d="M0 0 C2.31 0 4.62 0 7 0 C7.99 1.98 8.98 3.96 10 6 C7.8125 6.375 7.8125 6.375 5 6 C3.00977164 4.16038352 1.61010101 2.20813852 0 0 Z " fill="#85BB83" transform="translate(160,179)"/>
<path d="M0 0 C3.71599191 -0.20086443 4.77208445 -0.1519437 8 2 C8 2.66 8 3.32 8 4 C5.36 4.33 2.72 4.66 0 5 C0 3.35 0 1.7 0 0 Z " fill="#6BB672" transform="translate(160,139)"/>
<path d="M0 0 C-1.98 2.31 -3.96 4.62 -6 7 C-6.33 6.34 -6.66 5.68 -7 5 C-7.66 5 -8.32 5 -9 5 C-8.8125 3.125 -8.8125 3.125 -8 1 C-4.70594381 -0.82039948 -3.63772813 -1.21257604 0 0 Z " fill="#5DAC75" transform="translate(97,64)"/>
<path d="M0 0 C0.33 0 0.66 0 1 0 C1.3540919 6.51791392 1.03901852 11.17521449 -2 17 C-2.33 17 -2.66 17 -3 17 C-3.18603535 12.9072224 -2.84865614 10.58856779 -1 7 C-0.61250787 4.67504723 -0.27017161 2.34148732 0 0 Z " fill="#8BBC8F" transform="translate(85,109)"/>
<path d="M0 0 C0.66 0.33 1.32 0.66 2 1 C1.690625 2.134375 1.38125 3.26875 1.0625 4.4375 C-0.06931233 8.92461414 -0.59511294 13.39707347 -1 18 C-1.33 18 -1.66 18 -2 18 C-2.33 14.04 -2.66 10.08 -3 6 C-2.34 6 -1.68 6 -1 6 C-0.67 4.02 -0.34 2.04 0 0 Z " fill="#71B378" transform="translate(83,81)"/>
<path d="M0 0 C-4 2 -8 4 -12 6 C-11.4375 3.625 -11.4375 3.625 -10 1 C-6.09229013 -0.56308395 -4.03965064 -1.34655021 0 0 Z " fill="#59AA81" transform="translate(109,57)"/>
<path d="M0 0 C1.98 0 3.96 0 6 0 C5.67 0.66 5.34 1.32 5 2 C4.34 2 3.68 2 3 2 C3 2.99 3 3.98 3 5 C1.02 5.33 -0.96 5.66 -3 6 C-3 5.34 -3 4.68 -3 4 C-2.01 4 -1.02 4 0 4 C0 2.68 0 1.36 0 0 Z " fill="#81BE7B" transform="translate(188,178)"/>
<path d="M0 0 C4.20626034 1.50223584 5.73900021 4.28550034 8 8 C7.67 8.66 7.34 9.32 7 10 C3.125 7.375 3.125 7.375 2 4 C1.34 3.67 0.68 3.34 0 3 C0 2.01 0 1.02 0 0 Z " fill="#3C9784" transform="translate(121,16)"/>
<path d="M0 0 C0 0.66 0 1.32 0 2 C-0.886875 2.4125 -1.77375 2.825 -2.6875 3.25 C-5.81312366 4.90127288 -8.31905614 6.71331259 -11 9 C-11.66 8.67 -12.32 8.34 -13 8 C-11.92130607 7.03644756 -10.83681257 6.07938583 -9.75 5.125 C-8.84507813 4.32449219 -8.84507813 4.32449219 -7.921875 3.5078125 C-5.41154782 1.53832817 -3.24789041 0 0 0 Z " fill="#E2F8E4" transform="translate(55,160)"/>
<path d="M0 0 C0.66 0 1.32 0 2 0 C2.04125 0.61875 2.0825 1.2375 2.125 1.875 C2.41375 2.57625 2.7025 3.2775 3 4 C5.99615946 5.3045656 5.99615946 5.3045656 9 6 C8.01 6.99 7.02 7.98 6 9 C4.99406757 7.8803014 3.9954151 6.7540588 3 5.625 C2.443125 4.99851562 1.88625 4.37203125 1.3125 3.7265625 C0 2 0 2 0 0 Z " fill="#43997D" transform="translate(101,102)"/>
<path d="M0 0 C0 0.99 0 1.98 0 3 C-1.75 4.60546875 -1.75 4.60546875 -4 6.1875 C-4.7425 6.71730469 -5.485 7.24710937 -6.25 7.79296875 C-6.8275 8.19128906 -7.405 8.58960937 -8 9 C-8.66 8.67 -9.32 8.34 -10 8 C-8.71064081 6.85157077 -7.41843421 5.70633773 -6.125 4.5625 C-5.04605469 3.60537109 -5.04605469 3.60537109 -3.9453125 2.62890625 C-2 1 -2 1 0 0 Z " fill="#E3F9EC" transform="translate(103,59)"/>
<path d="M0 0 C0 0.66 0 1.32 0 2 C-1.2065625 2.433125 -1.2065625 2.433125 -2.4375 2.875 C-5.1326468 3.73262568 -5.1326468 3.73262568 -6 6 C-8.31 5.67 -10.62 5.34 -13 5 C-10.54278328 3.36185552 -8.65432189 2.38047801 -5.9375 1.375 C-5.24527344 1.11460938 -4.55304688 0.85421875 -3.83984375 0.5859375 C-2 0 -2 0 0 0 Z " fill="#E1F8F0" transform="translate(117,54)"/>
<path d="M0 0 C0 0.66 0 1.32 0 2 C-0.66 2 -1.32 2 -2 2 C-2 2.66 -2 3.32 -2 4 C-4.95664519 5.4783226 -7.74229737 5.06032783 -11 5 C-3.5 0 -3.5 0 0 0 Z " fill="#64AD83" transform="translate(89,145)"/>
<path d="M0 0 C7.26153846 0.36923077 7.26153846 0.36923077 11 3.5625 C11.99 4.7690625 11.99 4.7690625 13 6 C10 6 10 6 8.1875 4.625 C5.59172653 2.69671113 3.08327005 1.91096615 0 1 C0 0.67 0 0.34 0 0 Z " fill="#E0F8E2" transform="translate(27,135)"/>
<path d="M0 0 C0 0.66 0 1.32 0 2 C-4.62921525 3.0161692 -8.34462607 2.83796731 -13 2 C-13 1.67 -13 1.34 -13 1 C-11.58366664 0.83052421 -10.16691467 0.66454493 -8.75 0.5 C-7.56664062 0.36078125 -7.56664062 0.36078125 -6.359375 0.21875 C-4 0 -4 0 0 0 Z " fill="#EEFCEA" transform="translate(185,187)"/>
<path d="M0 0 C0.99 0 1.98 0 3 0 C2.6875 2.375 2.6875 2.375 2 5 C1.01 5.66 0.02 6.32 -1 7 C-0.67 4.69 -0.34 2.38 0 0 Z " fill="#228E77" transform="translate(130,160)"/>
<path d="M0 0 C-0.33 0.99 -0.66 1.98 -1 3 C-2.65 3 -4.3 3 -6 3 C-6 3.66 -6 4.32 -6 5 C-7.32 4.67 -8.64 4.34 -10 4 C-3.375 0 -3.375 0 0 0 Z " fill="#50A083" transform="translate(110,129)"/>
<path d="M0 0 C1.9375 0.6875 1.9375 0.6875 4 2 C4.75 4.625 4.75 4.625 5 7 C3.0625 6.3125 3.0625 6.3125 1 5 C0.25 2.375 0.25 2.375 0 0 Z " fill="#109476" transform="translate(128,136)"/>
<path d="M0 0 C0.66 0.33 1.32 0.66 2 1 C-1.625 7.875 -1.625 7.875 -5 9 C-3.7508258 5.54074837 -2.32472205 2.85306797 0 0 Z " fill="#8BBC8B" transform="translate(48,97)"/>
<path d="M0 0 C0.66 1.32 1.32 2.64 2 4 C1.34 4 0.68 4 0 4 C-0.33 5.32 -0.66 6.64 -1 8 C-1.66 8 -2.32 8 -3 8 C-1.125 1.125 -1.125 1.125 0 0 Z " fill="#6CB473" transform="translate(80,78)"/>
<path d="M0 0 C0.99 0.66 1.98 1.32 3 2 C2.67 2.99 2.34 3.98 2 5 C0.68 4.34 -0.64 3.68 -2 3 C-1.34 2.01 -0.68 1.02 0 0 Z " fill="#FFFEFF" transform="translate(46,188)"/>
<path d="M0 0 C1.32 0 2.64 0 4 0 C3.67 0.99 3.34 1.98 3 3 C2.01 2.67 1.02 2.34 0 2 C0 1.34 0 0.68 0 0 Z " fill="#FFFEFF" transform="translate(79,0)"/>
</svg>
